<?xml version="1.0" encoding="UTF-8" standalone="no"?>
<!-- Created with Inkscape (http://www.inkscape.org/) -->

<svg
   width="141.55208mm"
   height="246.32709mm"
   viewBox="0 0 141.55208 246.32709"
   version="1.1"
   id="svg1"
   xml:space="preserve"
   xmlns="http://www.w3.org/2000/svg"
   xmlns:svg="http://www.w3.org/2000/svg"><defs
     id="defs1" /><g
     id="layer1"
     transform="translate(-34.263546,-25.267706)"><g
       id="g1"><path
         d="m 54.901731,193.94027 -20.76784,-20.76911 2.245526,-2.18349 2.245526,-2.1835 -2.111125,2.18561 -2.111125,2.1856 20.765731,20.767 c 11.421152,11.42185 20.7062,20.767 20.63344,20.767 -0.07276,0 -9.47782,-9.3461 -20.900133,-20.76911 z m 86.119119,-23.74704 -6.34793,-6.41615 6.41614,6.34794 c 5.96209,5.8987 6.53543,6.48436 6.34794,6.48436 -0.0375,0 -2.92479,-2.88727 -6.41615,-6.41615 z m -32.694,2.51354 -0.64143,-0.7276 0.7276,0.64143 c 0.68006,0.59952 0.84894,0.81378 0.64144,0.81378 -0.0474,0 -0.37482,-0.32743 -0.72761,-0.72761 z m 65.37211,-1.78594 c -1.08412,-1.0914 -1.9116,-1.98437 -1.83884,-1.98437 0.0728,0 1.0193,0.89297 2.10342,1.98437 1.08412,1.09141 1.9116,1.98438 1.83884,1.98438 -0.0728,0 -1.0193,-0.89297 -2.10342,-1.98438 z m -70.11458,-5.52385 c 0,-0.0549 0.20836,-0.2633 0.46302,-0.46302 0.41964,-0.32911 0.429,-0.31975 0.0999,0.0999 -0.34564,0.44073 -0.56291,0.58089 -0.56291,0.36313 z M 127.77711,112.77864 127,111.91875 l 0.8599,0.7771 c 0.80154,0.72438 0.98151,0.94269 0.7771,0.94269 -0.0455,0 -0.43249,-0.38695 -0.85989,-0.8599 z M 77.123209,106.29635 72.495836,101.6 l 4.696354,4.62737 c 4.363253,4.29917 4.815928,4.76534 4.627373,4.76534 -0.03794,0 -2.151299,-2.11336 -4.696354,-4.69636 z m 0.92267,-31.088539 -2.11046,-2.182813 2.182813,2.11046 c 1.200547,1.160753 2.182812,2.143018 2.182812,2.182812 0,0.192974 -0.295035,-0.08313 -2.255165,-2.110459 z m 53.981201,0.06615 c 1.15734,-1.164167 2.16379,-2.116667 2.23655,-2.116667 0.0728,0 -0.81462,0.9525 -1.97196,2.116667 -1.15734,1.164166 -2.16379,2.116666 -2.23655,2.116666 -0.0728,0 0.81463,-0.9525 1.97196,-2.116666 z"
         id="path7"
         style="fill:currentColor;fill-opacity:1" /><path
         d="m 119.21568,216.6717 c 0.0127,-0.30822 0.0754,-0.37092 0.15985,-0.15985 0.0764,0.191 0.067,0.4192 -0.0209,0.50712 -0.0879,0.0879 -0.15046,-0.0684 -0.13897,-0.34727 z m -28.045831,-0.26458 c 0.0127,-0.30823 0.07539,-0.37092 0.159852,-0.15985 0.07643,0.19099 0.06703,0.4192 -0.02089,0.50711 -0.08792,0.0879 -0.150453,-0.0684 -0.138964,-0.34726 z m 0,-6.87917 c 0.0127,-0.30822 0.07539,-0.37092 0.159852,-0.15985 0.07643,0.191 0.06703,0.4192 -0.02089,0.50712 -0.08792,0.0879 -0.150453,-0.0684 -0.138964,-0.34727 z m 4.705144,-22.14024 c 0.111153,-0.11104 4.421317,-0.17048 9.578137,-0.13211 l 9.37604,0.0698 -9.57814,0.13211 c -5.267973,0.0727 -9.487191,0.0413 -9.376037,-0.0698 z m -6.821811,-2.46601 c 0.0127,-0.30822 0.07539,-0.37092 0.159853,-0.15985 0.07643,0.191 0.06703,0.4192 -0.02089,0.50712 -0.08792,0.0879 -0.150452,-0.0684 -0.138963,-0.34727 z m 17.238408,-2.22691 c 0,-0.50932 0.0545,-0.71768 0.121,-0.46302 0.0666,0.25466 0.0666,0.67138 0,0.92604 -0.0665,0.25466 -0.121,0.0463 -0.121,-0.46302 z m -6.355665,-0.40694 c -0.281873,-0.31959 -0.270378,-0.38681 0.06616,-0.38681 0.22402,0 0.40731,0.1786 0.40731,0.39688 0,0.48251 -0.0398,0.48166 -0.473475,-0.0101 z m -17.055193,-7.4412 c 0.181901,-0.0734 0.479557,-0.0734 0.661458,0 0.181901,0.0734 0.03307,0.13345 -0.330729,0.13345 -0.363802,0 -0.51263,-0.06 -0.330729,-0.13345 z m 43.937368,-0.006 c 0.191,-0.0764 0.4192,-0.067 0.50712,0.0209 0.0879,0.0879 -0.0683,0.15046 -0.34727,0.13897 -0.30822,-0.0127 -0.37092,-0.0754 -0.15985,-0.15986 z m -7.40833,-10.05416 c 0.19099,-0.0764 0.4192,-0.067 0.50711,0.0209 0.0879,0.0879 -0.0684,0.15045 -0.34726,0.13896 -0.30823,-0.0127 -0.37092,-0.0754 -0.15985,-0.15985 z m 8.30327,-6.56614 c 0.005,-0.43656 0.0647,-0.58312 0.13177,-0.32569 0.0671,0.25743 0.0627,0.61462 -0.01,0.79375 -0.0725,0.17913 -0.12736,-0.0315 -0.12197,-0.46806 z M 75.051154,130.83646 c 0,-0.3638 0.06005,-0.51263 0.133452,-0.33073 0.0734,0.1819 0.0734,0.47956 0,0.66146 -0.0734,0.1819 -0.133452,0.0331 -0.133452,-0.33073 z M 53.912496,108.15701 c 0.402183,-0.0608 0.997495,-0.0592 1.322916,0.004 0.325421,0.0628 -0.0036,0.11256 -0.731242,0.11057 -0.727604,-0.002 -0.993857,-0.0534 -0.591674,-0.11419 z m 101.335414,0 c 0.40218,-0.0608 0.99749,-0.0592 1.32292,0.004 0.32542,0.0628 -0.004,0.11256 -0.73125,0.11057 -0.7276,-0.002 -0.99385,-0.0534 -0.59167,-0.11419 z m -47.74439,-5.28254 c 0.19099,-0.0764 0.4192,-0.067 0.50712,0.0209 0.0879,0.0879 -0.0684,0.15046 -0.34727,0.13897 -0.30822,-0.0127 -0.37092,-0.0754 -0.15985,-0.15985 z m 1.99239,-22.970305 c 9.6e-4,-1.164167 0.0475,-1.607504 0.10337,-0.985194 0.0559,0.62231 0.0551,1.574811 -0.002,2.116667 -0.0569,0.541857 -0.10258,0.03269 -0.10162,-1.131473 z m -8.73125,-5.291667 c 9.6e-4,-1.164166 0.0475,-1.607503 0.10337,-0.985193 0.0559,0.62231 0.0551,1.57481 -0.002,2.116666 -0.0568,0.541857 -0.10258,0.03269 -0.10162,-1.131473 z m 8.46667,-11.1125 c 9.6e-4,-1.164166 0.0475,-1.607504 0.10337,-0.985194 0.0559,0.622311 0.0551,1.574811 -0.002,2.116667 -0.0568,0.541857 -0.10258,0.03269 -0.10162,-1.131473 z m -8.20208,-5.027083 c 9.6e-4,-1.164167 0.0475,-1.607504 0.10336,-0.985194 0.0559,0.62231 0.0551,1.57481 -0.002,2.116667 -0.0569,0.541856 -0.10259,0.03269 -0.10162,-1.131473 z m 7.9375,-11.1125 c 9.6e-4,-1.164167 0.0475,-1.607504 0.10336,-0.985194 0.0559,0.62231 0.0551,1.57481 -0.002,2.116667 -0.0569,0.541856 -0.10259,0.03269 -0.10162,-1.131473 z m -7.67292,-5.291667 c 9.6e-4,-1.164167 0.0475,-1.607504 0.10337,-0.985194 0.0559,0.62231 0.0551,1.57481 -0.002,2.116667 -0.0568,0.541856 -0.10258,0.03269 -0.10162,-1.131473 z M 94.365737,31.353123 c 0,-0.363802 0.06005,-0.512631 0.133452,-0.330729 0.0734,0.181901 0.0734,0.479557 0,0.661458 -0.0734,0.181901 -0.133452,0.03307 -0.133452,-0.330729 z m 9.152493,-5.996062 c 0.1819,-0.0734 0.47956,-0.0734 0.66146,0 0.1819,0.0734 0.0331,0.133452 -0.33073,0.133452 -0.3638,0 -0.51263,-0.06005 -0.33073,-0.133452 z m 2.66237,-0.0055 c 0.191,-0.07643 0.4192,-0.06703 0.50712,0.02089 0.0879,0.08792 -0.0683,0.150453 -0.34727,0.138964 -0.30822,-0.0127 -0.37092,-0.07539 -0.15985,-0.159852 z"
         id="path6"
         style="fill:currentColor;fill-opacity:1" /><path
         d="m 76.067711,214.63661 c 0,-0.04 0.922734,-0.96276 2.050521,-2.05052 l 2.050521,-1.97776 -1.977753,2.05052 c -1.836894,1.90448 -2.123289,2.17125 -2.123289,1.97776 z m -0.0034,-8.06317 -3.833036,-3.90261 3.902604,3.83304 c 2.146432,2.10817 3.902604,3.86434 3.902604,3.9026 0,0.18936 -0.411387,-0.20762 -3.972172,-3.83303 z m 1.987797,-25.99531 c 3.053339,-3.05594 5.611056,-5.55625 5.683816,-5.55625 0.07276,0 -2.365894,2.50031 -5.419233,5.55625 -3.053338,3.05593 -5.611055,5.55625 -5.683816,5.55625 -0.07276,0 2.365895,-2.50032 5.419233,-5.55625 z m -9.128125,-10.18646 c 3.563033,-3.56526 6.537773,-6.4823 6.610533,-6.4823 0.07276,0 -2.782917,2.91704 -6.345949,6.4823 -3.563033,3.56526 -6.537773,6.48229 -6.610533,6.48229 -0.07276,0 2.782917,-2.91703 6.345949,-6.48229 z m -26.726338,2.3151 -3.833035,-3.9026 3.902604,3.83303 c 2.146432,2.10817 3.902604,3.86434 3.902604,3.90261 0,0.18935 -0.411387,-0.20763 -3.972173,-3.83304 z m 93.242235,-49.87396 c -0.10468,-0.1819 -0.0874,-0.23697 0.0384,-0.12237 0.1258,0.11459 2.85356,-2.38572 6.06169,-5.55625 l 5.83297,-5.76461 -5.81858,5.88698 c -3.20022,3.23784 -5.84233,5.88698 -5.87136,5.88698 -0.029,0 -0.13844,-0.14883 -0.24312,-0.33073 z m 36.40701,-3.97537 c 0,-0.04 0.92274,-0.96276 2.05053,-2.05052 l 2.05052,-1.97775 -1.97776,2.05052 c -1.83689,1.90448 -2.12329,2.17124 -2.12329,1.97775 z m -89.69374,-5.88036 c 0.341774,-0.3638 0.680939,-0.66146 0.753699,-0.66146 0.07276,0 -0.147342,0.29766 -0.489116,0.66146 -0.341774,0.3638 -0.680939,0.66146 -0.7537,0.66146 -0.07276,0 0.147342,-0.29766 0.489117,-0.66146 z m -1.322917,-1.05833 c 0.341774,-0.3638 0.680939,-0.66146 0.753699,-0.66146 0.07276,0 -0.147341,0.29766 -0.489116,0.66146 -0.341774,0.3638 -0.680939,0.66146 -0.753699,0.66146 -0.07276,0 0.147342,-0.29766 0.489116,-0.66146 z m 52.255207,-5.68854 c 2.61634,-2.61938 4.81652,-4.7625 4.88928,-4.7625 0.0728,0 -2.00836,2.14312 -4.6247,4.7625 -2.61634,2.61937 -4.81652,4.7625 -4.88928,4.7625 -0.0728,0 2.00835,-2.14313 4.6247,-4.7625 z m -17.85938,-8.301981 c 0,-0.05494 0.20836,-0.263302 0.46302,-0.463021 0.41965,-0.329107 0.42901,-0.319749 0.0999,0.09989 -0.34564,0.440729 -0.56292,0.580887 -0.56292,0.363126 z m -0.95118,-69.551669 -0.50403,-0.595312 0.59532,0.504028 c 0.32742,0.277215 0.59531,0.545106 0.59531,0.595312 0,0.211734 -0.21294,0.05542 -0.6866,-0.504028 z"
         id="path5"
         style="fill:currentColor;fill-opacity:1" /><path
         d="m 118.9511,219.05295 c 0.0127,-0.30822 0.0754,-0.37092 0.15985,-0.15985 0.0764,0.191 0.067,0.4192 -0.0209,0.50712 -0.0879,0.0879 -0.15045,-0.0683 -0.13896,-0.34727 z m -27.516668,-0.26458 c 0.0127,-0.30823 0.07539,-0.37092 0.159853,-0.15985 0.07643,0.19099 0.06703,0.4192 -0.02089,0.50711 -0.08792,0.0879 -0.150452,-0.0683 -0.138963,-0.34726 z m 27.802138,-3.02066 c 0,-0.3638 0.0601,-0.51263 0.13345,-0.33073 0.0734,0.1819 0.0734,0.47956 0,0.66146 -0.0734,0.1819 -0.13345,0.0331 -0.13345,-0.33073 z m -28.036029,-0.66146 c 0.0054,-0.43656 0.06469,-0.58312 0.131773,-0.32569 0.06708,0.25743 0.06267,0.61462 -0.0098,0.79375 -0.07248,0.17913 -0.127362,-0.0315 -0.12197,-0.46806 z M 132.15938,212.725 c -1.08413,-1.09141 -1.9116,-1.98437 -1.83884,-1.98437 0.0728,0 1.0193,0.89296 2.10342,1.98437 1.08412,1.09141 1.9116,1.98438 1.83884,1.98438 -0.0728,0 -1.0193,-0.89297 -2.10342,-1.98438 z m -40.968643,-2.24896 c 0,-0.3638 0.06005,-0.51263 0.133452,-0.33073 0.0734,0.1819 0.0734,0.47956 0,0.66146 -0.0734,0.1819 -0.133452,0.0331 -0.133452,-0.33073 z m 28.024943,-0.41892 c 0.0127,-0.30823 0.0754,-0.37092 0.15985,-0.15985 0.0764,0.19099 0.067,0.4192 -0.0209,0.50711 -0.0879,0.0879 -0.15046,-0.0684 -0.13897,-0.34726 z m 14.79578,-3.41754 c 2.10629,-2.11005 3.88914,-3.83645 3.9619,-3.83645 0.0728,0 -1.59103,1.7264 -3.69732,3.83645 -2.10629,2.11006 -3.88914,3.83646 -3.9619,3.83646 -0.0728,0 1.59103,-1.7264 3.69732,-3.83646 z M 69.209433,195.50504 c 0.0127,-0.30823 0.07539,-0.37092 0.159852,-0.15986 0.07643,0.191 0.06703,0.4192 -0.02089,0.50712 -0.08792,0.0879 -0.150453,-0.0684 -0.138964,-0.34726 z m 71.722967,-0.904 c 0,-0.3638 0.0601,-0.51263 0.13345,-0.33073 0.0734,0.1819 0.0734,0.47956 0,0.66146 -0.0734,0.1819 -0.13345,0.0331 -0.13345,-0.33073 z m -71.722967,-0.94809 c 0.0127,-0.30822 0.07539,-0.37092 0.159852,-0.15985 0.07643,0.191 0.06703,0.4192 -0.02089,0.50712 -0.08792,0.0879 -0.150453,-0.0684 -0.138964,-0.34727 z m 62.817647,-13.07482 c -3.05333,-3.05594 -5.49199,-5.55625 -5.41923,-5.55625 0.0728,0 2.63048,2.50031 5.68382,5.55625 3.05334,3.05593 5.49199,5.55625 5.41923,5.55625 -0.0728,0 -2.63048,-2.50032 -5.68382,-5.55625 z m -22.31551,4.49791 c 0,-0.3638 0.0601,-0.51263 0.13345,-0.33073 0.0734,0.1819 0.0734,0.47956 0,0.66146 -0.0734,0.1819 -0.13345,0.0331 -0.13345,-0.33073 z m -20.393804,-2.53559 c 0.01269,-0.30822 0.07539,-0.37092 0.159852,-0.15985 0.07643,0.191 0.06703,0.4192 -0.02089,0.50712 -0.08792,0.0879 -0.150453,-0.0684 -0.138964,-0.34727 z m 5.027083,0 c 0.0127,-0.30822 0.07539,-0.37092 0.159852,-0.15985 0.07643,0.191 0.06703,0.4192 -0.02089,0.50712 -0.08792,0.0879 -0.150453,-0.0684 -0.138964,-0.34727 z m 10.099421,-0.82892 c 0.40018,-0.0606 1.05503,-0.0606 1.45521,0 0.40018,0.0606 0.0728,0.11023 -0.7276,0.11023 -0.80037,0 -1.12779,-0.0496 -0.72761,-0.11023 z m 63.43385,-8.93861 c 2.10629,-2.11006 3.88915,-3.83646 3.96191,-3.83646 0.0728,0 -1.59103,1.7264 -3.69732,3.83646 -2.10629,2.11005 -3.88915,3.83646 -3.96191,3.83646 -0.0728,0 1.59104,-1.72641 3.69732,-3.83646 z M 75.294849,134.1217 c 0.0127,-0.30822 0.07539,-0.37092 0.159853,-0.15985 0.07643,0.19099 0.06703,0.4192 -0.02089,0.50712 -0.08792,0.0879 -0.150453,-0.0684 -0.138965,-0.34727 z m 59.531251,-0.79375 c 0.0127,-0.30822 0.0754,-0.37092 0.15985,-0.15985 0.0764,0.19099 0.067,0.4192 -0.0209,0.50712 -0.0879,0.0879 -0.15045,-0.0684 -0.13896,-0.34727 z m -66.036686,-16.05139 -5.818577,-5.88698 5.886979,5.81858 c 3.237838,3.20022 5.886979,5.84936 5.886979,5.88698 0,0.18775 -0.548816,-0.34846 -5.955381,-5.81858 z m -32.415823,-0.39687 -1.977753,-2.05052 2.052,1.97922 2.052,1.97922 3.636541,-3.56672 3.636542,-3.56672 -3.568199,3.63802 c -1.96251,2.00091 -3.632364,3.63802 -3.710789,3.63802 -0.07842,0 -1.032578,-0.92274 -2.120342,-2.05052 z M 55.165629,93.927082 C 66.588318,82.503696 75.993687,73.15729 76.066447,73.15729 c 0.07276,0 -9.213545,9.346406 -20.636235,20.769792 -11.42269,11.423388 -20.828058,20.769788 -20.900819,20.769788 -0.07276,0 9.213546,-9.3464 20.636236,-20.769788 z m 99.747281,-0.06615 -20.76916,-20.835938 20.83594,20.76916 c 11.45976,11.423046 20.83593,20.799216 20.83593,20.835946 0,0.0367 -0.03,0.0668 -0.0668,0.0668 -0.0367,0 -9.4129,-9.37617 -20.83594,-20.835938 z m -25.43312,18.256258 c -0.3291,-0.41965 -0.31975,-0.42901 0.0999,-0.0999 0.25466,0.19972 0.46302,0.40808 0.46302,0.46302 0,0.21776 -0.21727,0.0776 -0.56292,-0.36312 z m -27.79711,-7.39064 c 0.191,-0.0764 0.4192,-0.067 0.50712,0.0209 0.0879,0.0879 -0.0684,0.15045 -0.34726,0.13896 -0.30823,-0.0127 -0.37092,-0.0754 -0.15986,-0.15985 z m 6.61459,0 c 0.19099,-0.0764 0.4192,-0.067 0.50712,0.0209 0.0879,0.0879 -0.0684,0.15045 -0.34727,0.13896 -0.30822,-0.0127 -0.37092,-0.0754 -0.15985,-0.15985 z m 5.96114,-2.59738 c 9.6e-4,-1.16417 0.0475,-1.60751 0.10337,-0.9852 0.0559,0.62231 0.0551,1.57481 -0.002,2.11667 -0.0568,0.54186 -0.10258,0.0327 -0.10162,-1.13147 z M 80.383702,96.242605 c 2.301035,-0.04409 5.991972,-0.044 8.202083,2.04e-4 2.210111,0.04421 0.327447,0.08028 -4.183699,0.08017 -4.511146,-1.12e-4 -6.319418,-0.03628 -4.018384,-0.08037 z m 45.683468,0.0016 7.93089,-0.07593 0.0833,-4.097455 0.0833,-4.097455 -0.0104,4.167471 -0.0104,4.16747 -8.00373,0.0059 -8.00374,0.0059 z m -56.827045,-2.84632 c 0.0054,-0.436562 0.06469,-0.583124 0.131774,-0.325693 0.06708,0.257431 0.06267,0.614618 -0.0098,0.79375 -0.07248,0.179131 -0.127362,-0.03149 -0.12197,-0.468057 z m 40.255785,-9.260416 c 9.6e-4,-1.164167 0.0475,-1.607504 0.10337,-0.985194 0.0559,0.62231 0.0551,1.57481 -0.002,2.116666 -0.0569,0.541857 -0.10258,0.03269 -0.10162,-1.131472 z M 76.328618,81.028644 c 3.314627,-3.379486 3.707843,-3.757893 3.707843,-3.568199 0,0.0384 -1.637109,1.675512 -3.638021,3.638021 l -3.63802,3.568199 z m 24.436042,-2.182812 c 9.6e-4,-1.164167 0.0475,-1.607504 0.10337,-0.985194 0.0559,0.62231 0.0551,1.57481 -0.002,2.116667 -0.0568,0.541856 -0.10258,0.03269 -0.10162,-1.131473 z m 8.46667,-11.1125 c 9.6e-4,-1.164167 0.0475,-1.607504 0.10337,-0.985194 0.0559,0.62231 0.0551,1.57481 -0.002,2.116667 -0.0568,0.541856 -0.10258,0.03269 -0.10162,-1.131473 z m -8.20208,-5.291667 c 9.6e-4,-1.164167 0.0475,-1.607504 0.10336,-0.985194 0.0559,0.62231 0.0551,1.57481 -0.002,2.116667 -0.0569,0.541856 -0.10259,0.03269 -0.10162,-1.131473 z m 7.9375,-11.1125 c 9.6e-4,-1.164167 0.0475,-1.607504 0.10336,-0.985194 0.0559,0.62231 0.0551,1.57481 -0.002,2.116667 -0.0569,0.541856 -0.10259,0.03269 -0.10162,-1.131473 z m -7.67292,-5.291667 c 9.6e-4,-1.164167 0.0475,-1.607504 0.10337,-0.985194 0.0559,0.62231 0.0551,1.57481 -0.002,2.116667 -0.0568,0.541856 -0.10258,0.03269 -0.10162,-1.131473 z m -5.5398,-11.840104 -0.504028,-0.595313 0.595313,0.504028 c 0.559446,0.473662 0.715761,0.686597 0.504028,0.686597 -0.05021,0 -0.318098,-0.267891 -0.595313,-0.595312 z m 8.95483,-8.847489 c 0.25466,-0.06655 0.67138,-0.06655 0.92604,0 0.25466,0.06655 0.0463,0.121 -0.46302,0.121 -0.50933,0 -0.71769,-0.05445 -0.46302,-0.121 z"
         id="path4"
         style="fill:currentColor;fill-opacity:1" /><path
         d="m 108.75771,37.800791 c 0,0 -5.2e-4,5.17e-4 -5.2e-4,5.17e-4 0,0 -5.2e-4,0 -5.2e-4,0 0,0 -5.1e-4,0 -5.1e-4,0 -0.0326,0.02323 -0.0558,0.470126 -0.0558,1.224731 0,0.750343 0.0219,1.195854 0.0543,1.223698 1.8e-4,1.31e-4 0.001,9.3e-4 0.002,10e-4 0,0 5.1e-4,0 5.1e-4,0 0,0 5.2e-4,0 5.2e-4,0 0,0 5.2e-4,5.17e-4 5.2e-4,5.17e-4 0,0 5.1e-4,0 5.1e-4,0 0,0 5.2e-4,0 5.2e-4,0 0,0 5.2e-4,-5.17e-4 5.2e-4,-5.17e-4 0,0 5.1e-4,0 5.1e-4,0 0,0 5.2e-4,-5.17e-4 5.2e-4,-5.17e-4 0,0 5.2e-4,0 5.2e-4,0 0.013,-0.01145 0.0282,-0.08707 0.0434,-0.232027 0.0571,-0.545703 0.0571,-1.438672 0,-1.984375 -0.0154,-0.147084 -0.0302,-0.222303 -0.0434,-0.232027 0,0 -5.2e-4,0 -5.2e-4,0 0,0 -5.2e-4,-5.17e-4 -5.2e-4,-5.17e-4 0,0 -5.1e-4,0 -5.1e-4,0 0,0 -5.2e-4,-5.17e-4 -5.2e-4,-5.17e-4 0,0 -5.2e-4,0 -5.2e-4,0 z m -7.40885,10.938351 c 0,0 -5.2e-4,5.16e-4 -5.2e-4,5.16e-4 -1.8e-4,9.8e-5 -10e-4,3.9e-4 -0.002,5.17e-4 0,0 -5.2e-4,5.17e-4 -5.2e-4,5.17e-4 0,0 -5.1e-4,5.17e-4 -5.1e-4,5.17e-4 -0.0302,0.03636 -0.051,0.491959 -0.0517,1.265039 h -5.2e-4 c -6.7e-4,0.818552 0.0217,1.31344 0.0548,1.346687 0,0 5.2e-4,5.17e-4 5.2e-4,5.17e-4 0,0 5.1e-4,5.17e-4 5.1e-4,5.17e-4 1.9e-4,9.9e-5 10e-4,4.46e-4 0.002,5.17e-4 0,0 5.2e-4,0 5.2e-4,0 0,0 5.2e-4,0 5.2e-4,0 0,0 5.1e-4,0 5.1e-4,0 0,0 5.2e-4,0 5.2e-4,0 0,0 5.2e-4,0 5.2e-4,0 0,0 5.1e-4,-5.17e-4 5.1e-4,-5.17e-4 0,0 5.2e-4,-5.17e-4 5.2e-4,-5.17e-4 0.0123,-0.01027 0.0266,-0.08003 0.0408,-0.21549 0.0571,-0.541857 0.058,-1.494357 0.002,-2.116667 -0.0157,-0.175025 -0.031,-0.265979 -0.0444,-0.280086 0,0 -5.2e-4,-5.17e-4 -5.2e-4,-5.17e-4 0,0 -5.1e-4,-5.17e-4 -5.1e-4,-5.17e-4 0,0 -5.2e-4,-5.17e-4 -5.2e-4,-5.17e-4 0,0 -5.2e-4,0 -5.2e-4,0 0,0 -5.1e-4,-5.16e-4 -5.1e-4,-5.16e-4 0,0 -5.2e-4,0 -5.2e-4,0 0,0 -5.2e-4,0 -5.2e-4,0 z m 7.67291,5.291666 c 0,0 -5.1e-4,5.17e-4 -5.1e-4,5.17e-4 -1.8e-4,9.8e-5 -0.001,3.9e-4 -0.002,5.17e-4 0,0 -5.2e-4,5.17e-4 -5.2e-4,5.17e-4 0,0 -5.2e-4,5.16e-4 -5.2e-4,5.16e-4 -0.0302,0.03636 -0.051,0.49196 -0.0517,1.265039 h -5.2e-4 c -6.8e-4,0.818552 0.0216,1.313441 0.0548,1.346688 0,0 5.1e-4,5.17e-4 5.1e-4,5.17e-4 0,0 5.2e-4,5.17e-4 5.2e-4,5.17e-4 0,0 5.2e-4,0 5.2e-4,0 1.8e-4,7e-5 10e-4,4.75e-4 0.002,5.16e-4 0,0 5.1e-4,0 5.1e-4,0 0,0 5.2e-4,0 5.2e-4,0 0,0 5.2e-4,0 5.2e-4,0 0,0 5.1e-4,0 5.1e-4,0 0,0 5.2e-4,-5.16e-4 5.2e-4,-5.16e-4 0,0 5.2e-4,-5.17e-4 5.2e-4,-5.17e-4 0.0123,-0.01027 0.0266,-0.08003 0.0408,-0.215491 0.0571,-0.541857 0.058,-1.494356 0.002,-2.116666 -0.0157,-0.175025 -0.031,-0.265979 -0.0444,-0.280087 0,0 -5.2e-4,-5.16e-4 -5.2e-4,-5.16e-4 0,0 -5.2e-4,-5.17e-4 -5.2e-4,-5.17e-4 0,0 -5.1e-4,-5.17e-4 -5.1e-4,-5.17e-4 0,0 -5.2e-4,0 -5.2e-4,0 0,0 -5.2e-4,-5.17e-4 -5.2e-4,-5.17e-4 0,0 -5.1e-4,0 -5.1e-4,0 0,0 -5.2e-4,0 -5.2e-4,0 z m -7.9375,11.1125 c 0,0 -5.1e-4,5.17e-4 -5.1e-4,5.17e-4 -1.8e-4,9.8e-5 -0.001,3.9e-4 -0.002,5.17e-4 0,0 -5.2e-4,5.17e-4 -5.2e-4,5.17e-4 0,0 -5.2e-4,5.16e-4 -5.2e-4,5.16e-4 -0.0302,0.03636 -0.051,0.49196 -0.0517,1.265039 h -5.2e-4 c -6.8e-4,0.818552 0.0216,1.313441 0.0548,1.346688 0,0 5.1e-4,5.17e-4 5.1e-4,5.17e-4 0,0 5.2e-4,5.17e-4 5.2e-4,5.17e-4 0,0 5.2e-4,0 5.2e-4,0 1.8e-4,7e-5 10e-4,4.75e-4 0.002,5.16e-4 0,0 5.1e-4,0 5.1e-4,0 0,0 5.2e-4,0 5.2e-4,0 0,0 5.2e-4,0 5.2e-4,0 0,0 5.1e-4,0 5.1e-4,0 0,0 5.2e-4,-5.16e-4 5.2e-4,-5.16e-4 0,0 5.2e-4,-5.17e-4 5.2e-4,-5.17e-4 0.0123,-0.01027 0.0266,-0.08003 0.0408,-0.215491 0.0571,-0.541857 0.058,-1.494356 0.002,-2.116666 -0.0157,-0.175025 -0.031,-0.265979 -0.0444,-0.280087 0,0 -5.2e-4,-5.16e-4 -5.2e-4,-5.16e-4 0,0 -5.2e-4,-5.17e-4 -5.2e-4,-5.17e-4 0,0 -5.1e-4,-5.17e-4 -5.1e-4,-5.17e-4 0,0 -5.2e-4,0 -5.2e-4,0 0,0 -5.2e-4,-5.17e-4 -5.2e-4,-5.17e-4 0,0 -5.1e-4,0 -5.1e-4,0 0,0 -5.2e-4,0 -5.2e-4,0 z m 8.20209,5.291667 c 0,0 -5.2e-4,5.17e-4 -5.2e-4,5.17e-4 -1.8e-4,9.7e-5 -10e-4,3.9e-4 -0.002,5.16e-4 0,0 -5.2e-4,5.17e-4 -5.2e-4,5.17e-4 0,0 -5.1e-4,5.17e-4 -5.1e-4,5.17e-4 -0.0302,0.03636 -0.051,0.491959 -0.0517,1.265039 h -5.2e-4 c -6.7e-4,0.818552 0.0217,1.313441 0.0548,1.346688 0,0 5.2e-4,5.17e-4 5.2e-4,5.17e-4 0,0 5.1e-4,5.16e-4 5.1e-4,5.16e-4 1.9e-4,9.9e-5 10e-4,4.47e-4 0.002,5.17e-4 0,0 5.2e-4,0 5.2e-4,0 0,0 5.2e-4,0 5.2e-4,0 0,0 5.1e-4,0 5.1e-4,0 0,0 5.2e-4,0 5.2e-4,0 0,0 5.2e-4,0 5.2e-4,0 0,0 5.1e-4,-5.17e-4 5.1e-4,-5.17e-4 0,0 5.2e-4,-5.16e-4 5.2e-4,-5.16e-4 0.0123,-0.01027 0.0266,-0.08003 0.0408,-0.215491 0.0571,-0.541857 0.058,-1.494357 0.002,-2.116667 -0.0157,-0.175024 -0.031,-0.265979 -0.0444,-0.280086 0,0 -5.2e-4,-5.17e-4 -5.2e-4,-5.17e-4 0,0 -5.1e-4,-5.17e-4 -5.1e-4,-5.17e-4 0,0 -5.2e-4,-5.16e-4 -5.2e-4,-5.16e-4 0,0 -5.2e-4,0 -5.2e-4,0 0,0 -5.1e-4,-5.17e-4 -5.1e-4,-5.17e-4 0,0 -5.2e-4,0 -5.2e-4,0 0,0 -5.2e-4,0 -5.2e-4,0 z m -8.46667,11.1125 c 0,0 -5.2e-4,5.17e-4 -5.2e-4,5.17e-4 -1.8e-4,9.7e-5 -0.001,3.9e-4 -0.002,5.16e-4 0,0 -5.1e-4,5.17e-4 -5.1e-4,5.17e-4 0,0 -5.2e-4,5.17e-4 -5.2e-4,5.17e-4 -0.0302,0.03636 -0.051,0.491959 -0.0517,1.265039 h -5.1e-4 c -6.8e-4,0.818552 0.0217,1.313441 0.0548,1.346688 0,0 5.2e-4,5.17e-4 5.2e-4,5.17e-4 0,0 5.2e-4,5.16e-4 5.2e-4,5.16e-4 1.8e-4,9.9e-5 10e-4,4.47e-4 0.002,5.17e-4 0,0 5.1e-4,0 5.1e-4,0 0,0 5.2e-4,0 5.2e-4,0 0,0 5.2e-4,0 5.2e-4,0 0,0 5.1e-4,0 5.1e-4,0 0,0 5.2e-4,0 5.2e-4,0 0,0 5.2e-4,-5.17e-4 5.2e-4,-5.17e-4 0,0 5.1e-4,-5.16e-4 5.1e-4,-5.16e-4 0.0123,-0.01028 0.0266,-0.08003 0.0408,-0.215491 0.0571,-0.541857 0.058,-1.494357 0.002,-2.116667 -0.0157,-0.175024 -0.031,-0.265979 -0.0444,-0.280086 0,0 -5.1e-4,-5.17e-4 -5.1e-4,-5.17e-4 0,0 -5.2e-4,-5.17e-4 -5.2e-4,-5.17e-4 0,0 -5.2e-4,-5.16e-4 -5.2e-4,-5.16e-4 0,0 -5.1e-4,0 -5.1e-4,0 0,0 -5.2e-4,-5.17e-4 -5.2e-4,-5.17e-4 0,0 -5.2e-4,0 -5.2e-4,0 0,0 -5.1e-4,0 -5.1e-4,0 z m 8.74882,4.749064 c -0.0221,0.0052 -0.0501,0.10947 -0.0879,0.307475 -0.0645,0.338005 -0.0523,0.784489 0.0274,0.992187 0.002,0.0041 0.15547,1.41e-4 0.15761,0.0041 l -0.032,-0.753442 c -0.0153,-0.363152 -0.0333,-0.542726 -0.0615,-0.550354 0,0 -5.2e-4,0 -5.2e-4,0 0,0 -5.2e-4,0 -5.2e-4,0 0,0 -5.1e-4,0 -5.1e-4,0 0,0 -5.2e-4,0 -5.2e-4,0 -2e-4,3.1e-5 -10e-4,-4.8e-5 -0.002,0 z m 0.0971,1.303796 0.004,0.10387 5.32008,0.03101 c -1.28641,-0.04834 -5.25182,3.4e-5 -5.32422,-0.134876 z m 5.32422,0.134876 c 1.66923,0.06273 1.10721,0.205236 6.90863,0.175183 l 12.24524,-0.06356 -12.23697,-0.07131 z m -14.44821,0.0987 -12.170832,0.0041 -12.170834,0.0041 -0.01034,4.167188 -0.01033,4.167187 0.0832,-4.098458 0.0832,-4.098458 12.097969,-0.07286 z m -31.26269,4.20026 c -0.03688,0.004 -0.06222,0.100179 -0.06976,0.283187 -0.01149,0.278916 0.05109,0.435186 0.139009,0.347266 0.08792,-0.08792 0.09762,-0.31595 0.02119,-0.506946 -0.03431,-0.08575 -0.0652,-0.126231 -0.09043,-0.123507 z m 71.73929,0.659908 c -0.0391,0.0042 -0.0661,0.213941 -0.0661,0.572058 0,0.509321 0.0543,0.717682 0.12093,0.463021 0.0665,-0.254662 0.0665,-0.67138 0,-0.926041 -0.0197,-0.0756 -0.0383,-0.110811 -0.0548,-0.109038 z m -44.971932,7.457941 c -0.04282,0.0148 -0.07646,0.55949 -0.09508,1.64693 -0.0218,1.2733 0.0495,2.31485 0.158646,2.31511 0.109146,2.7e-4 0.16526,-0.74388 0.12454,-1.65365 -0.06931,-1.54867 -0.135599,-2.3265 -0.188102,-2.30839 z m 9.094022,2.40813 c -0.14387,-0.002 -0.29762,0.014 -0.42633,0.0475 -0.25743,0.0671 -0.11101,0.12677 0.32556,0.13177 0.43655,0.005 0.64732,-0.0494 0.46819,-0.12195 -0.0896,-0.0363 -0.22356,-0.0556 -0.36742,-0.0574 z m -2.37195,2.11563 c -0.0919,-0.004 -0.19647,0.013 -0.29197,0.0512 -0.21106,0.0845 -0.14855,0.14698 0.15968,0.15968 0.27896,0.0115 0.43516,-0.0511 0.34726,-0.13901 -0.044,-0.0439 -0.12306,-0.068 -0.21497,-0.0718 z m 5.02708,0 c -0.0919,-0.004 -0.19648,0.013 -0.29197,0.0512 -0.21107,0.0845 -0.14854,0.14698 0.15968,0.15968 0.27887,0.0115 0.43517,-0.0511 0.34727,-0.13901 -0.044,-0.0439 -0.12306,-0.068 -0.21498,-0.0718 z m 27.12444,23.90035 c -0.0431,0.003 -0.0729,0.15245 -0.0729,0.40824 0,0.36383 0.0599,0.51263 0.13333,0.33073 0.0734,-0.1819 0.0734,-0.47904 0,-0.66094 -0.0218,-0.054 -0.0422,-0.0793 -0.0605,-0.078 z m 0,3.43958 c -0.0431,0.003 -0.0729,0.15297 -0.0729,0.40876 0,0.36383 0.0599,0.51263 0.13333,0.33073 0.0734,-0.1819 0.0734,-0.47956 0,-0.66146 -0.0218,-0.054 -0.0422,-0.0793 -0.0605,-0.078 z m -3.72845,18.49138 c -0.0369,0.004 -0.0622,0.1007 -0.0698,0.2837 -0.0115,0.27887 0.0511,0.43517 0.13901,0.34727 0.0879,-0.0879 0.0976,-0.31596 0.0212,-0.50695 -0.0343,-0.0857 -0.0652,-0.12674 -0.0904,-0.12402 z m 2.67012,6.90862 c -0.0431,0.003 -0.0729,0.15297 -0.0729,0.40876 0,0.36383 0.0599,0.51263 0.13332,0.33073 0.0734,-0.1819 0.0734,-0.47956 0,-0.66146 -0.0218,-0.054 -0.0422,-0.0793 -0.0605,-0.078 z m -0.0243,1.82263 c -0.0369,0.004 -0.0622,0.1007 -0.0698,0.2837 -0.0115,0.27897 0.0511,0.43517 0.13901,0.34727 0.0879,-0.0879 0.0976,-0.31596 0.0212,-0.50695 -0.0343,-0.0857 -0.0652,-0.12674 -0.0904,-0.12402 z m -24.05021,24.19491 c -0.0363,0.008 -0.0624,0.16959 -0.0656,0.45268 h -5.1e-4 c -0.005,0.43655 0.0494,0.6468 0.12195,0.46767 0.0727,-0.17913 0.0774,-0.53632 0.0103,-0.79375 -0.0236,-0.0905 -0.0465,-0.13101 -0.0662,-0.1266 z m 11.08563,0.14676 c -0.0369,0.004 -0.0622,0.10069 -0.0698,0.2837 -0.0115,0.27886 0.0511,0.43517 0.13901,0.34727 0.0879,-0.0879 0.0976,-0.31596 0.0212,-0.50695 -0.0343,-0.0857 -0.0652,-0.12675 -0.0904,-0.12402 z m -17.08681,0.3054 -0.11782,0.8599 c -0.11613,0.8499 -0.13308,0.8599 -1.55547,0.8599 -1.38543,0 -1.43956,-0.0268 -1.46916,-0.72761 -0.0201,-0.47606 -0.0739,-0.56215 -0.15503,-0.24908 -0.0682,0.26316 -0.0559,0.65624 0.0274,0.87333 l 5.2e-4,-5.1e-4 c 0.11528,0.30038 0.51554,0.37624 1.67587,0.31574 l 1.52445,-0.0796 0.0346,-0.92604 z m 15.52256,1.64125 c -0.32942,-0.003 -0.52978,0.048 -0.47645,0.13436 0.0711,0.1151 0.62829,0.1996 1.23816,0.1881 1.24466,-0.0234 1.07048,-0.15664 -0.39377,-0.30127 -0.13387,-0.0132 -0.25813,-0.0203 -0.36794,-0.0212 z m -12.0003,0.0103 c -0.42294,0.002 -0.69089,0.0525 -0.64027,0.13436 0.0675,0.10915 0.80017,0.18485 1.62833,0.16795 1.64704,-0.0336 1.41288,-0.16328 -0.51935,-0.28732 -0.16934,-0.0109 -0.32773,-0.0156 -0.46871,-0.015 z m -9.657805,0.009 c -0.633422,0.007 -1.478394,0.0619 -2.268079,0.16124 v -5.2e-4 c -0.06679,0.008 -0.102251,0.0176 -0.109554,0.0264 0,0 -5.17e-4,5.2e-4 -5.17e-4,5.2e-4 0,0 -5.17e-4,5.2e-4 -5.17e-4,5.2e-4 0,0 -5.16e-4,5.1e-4 -5.16e-4,5.1e-4 0,0 0,5.2e-4 0,5.2e-4 0,0 0,5.2e-4 0,5.2e-4 0,0 0,5.1e-4 0,5.1e-4 0,0 0,5.2e-4 0,5.2e-4 0,0 0,5.2e-4 0,5.2e-4 0,0 0,5.1e-4 0,5.1e-4 0,0 5.16e-4,5.2e-4 5.16e-4,5.2e-4 1.25e-4,1.9e-4 3.68e-4,0.001 5.17e-4,0.002 0.0342,0.0366 0.55016,0.0732 1.351339,0.0899 1.046437,0.0218 1.958056,-0.0495 2.025716,-0.15865 0.05658,-0.0912 -0.365484,-0.13203 -0.998905,-0.12506 z m 15.988175,0.0884 c -0.35967,0 -0.71934,0.0143 -0.99219,0.0429 -0.14496,0.0152 -0.22006,0.0294 -0.23151,0.0424 0,0 -5.2e-4,5.1e-4 -5.2e-4,5.1e-4 0,0 0,5.2e-4 0,5.2e-4 0,0 -5.2e-4,5.2e-4 -5.2e-4,5.2e-4 -5e-5,1.9e-4 -4.8e-4,10e-4 -5.1e-4,0.002 0,0 0,5.2e-4 0,5.2e-4 0,0 0,5.1e-4 0,5.1e-4 0,0 5.1e-4,5.2e-4 5.1e-4,5.2e-4 0,0 0,5.2e-4 0,5.2e-4 0,0 0,5.1e-4 0,5.1e-4 0,0 5.2e-4,5.2e-4 5.2e-4,5.2e-4 0.0278,0.0323 0.47388,0.0548 1.22422,0.0548 0.75033,0 1.19584,-0.0219 1.22369,-0.0543 0,0 5.2e-4,-5.2e-4 5.2e-4,-5.2e-4 0,0 5.2e-4,-5.2e-4 5.2e-4,-5.2e-4 0,0 0,-5.1e-4 0,-5.1e-4 0,0 0,-5.2e-4 0,-5.2e-4 0,0 5.1e-4,-5.2e-4 5.1e-4,-5.2e-4 0,0 0,-5.1e-4 0,-5.1e-4 -3e-5,-1.9e-4 -4.5e-4,-0.001 -5.1e-4,-0.002 0,0 0,-5.1e-4 0,-5.1e-4 0,0 -5.2e-4,-5.2e-4 -5.2e-4,-5.2e-4 0,0 0,-5.2e-4 0,-5.2e-4 -0.0114,-0.013 -0.0871,-0.0277 -0.23203,-0.0429 -0.27285,-0.0285 -0.63252,-0.0429 -0.99218,-0.0429 z m -23.283337,0.001 c -0.215801,0 -0.431602,0.016 -0.595313,0.0475 -0.327422,0.0631 -0.05953,0.11472 0.595313,0.11472 0.654842,0 0.922734,-0.0516 0.595312,-0.11472 -0.163711,-0.0316 -0.379512,-0.0475 -0.595312,-0.0475 z m 50.625847,7.73389 c -0.0369,0.004 -0.0622,0.10018 -0.0698,0.28319 -0.0115,0.27887 0.0511,0.43516 0.13901,0.34726 0.0879,-0.0879 0.0976,-0.31594 0.0212,-0.50694 -0.0343,-0.0857 -0.0652,-0.12623 -0.0904,-0.12351 z m 0,1.85208 c -0.0369,0.004 -0.0622,0.10018 -0.0698,0.28319 -0.0115,0.27886 0.0511,0.43517 0.13901,0.34727 0.0879,-0.0879 0.0976,-0.31595 0.0212,-0.50695 -0.0343,-0.0857 -0.0652,-0.12623 -0.0904,-0.12351 z m -21.63692,16.08378 c 0,0 -5.2e-4,5.1e-4 -5.2e-4,5.1e-4 0,0 -5.1e-4,5.2e-4 -5.1e-4,5.2e-4 -0.0312,0.0294 -0.0527,0.59497 -0.0527,1.55081 0,0.95583 0.021,1.52139 0.0522,1.55081 0,0 5.2e-4,0 5.2e-4,0 0,0 5.1e-4,5.2e-4 5.1e-4,5.2e-4 0,0 5.2e-4,5.1e-4 5.2e-4,5.1e-4 0,0 5.2e-4,0 5.2e-4,0 0,0 5.1e-4,0 5.1e-4,0 0,0 5.2e-4,0 5.2e-4,0 0,0 5.2e-4,-5.1e-4 5.2e-4,-5.1e-4 0,0 5.1e-4,0 5.1e-4,0 1.9e-4,-1.5e-4 10e-4,-8.6e-4 0.002,-0.001 0.0124,-0.0145 0.0263,-0.10991 0.0408,-0.29352 0.0545,-0.69122 0.0545,-1.82231 0,-2.51354 -0.0145,-0.18361 -0.0279,-0.2785 -0.0403,-0.29301 -1.8e-4,-1.8e-4 -0.001,-8.9e-4 -0.002,-0.001 0,0 -5.2e-4,-5.2e-4 -5.2e-4,-5.2e-4 0,0 -5.1e-4,0 -5.1e-4,0 0,0 -5.2e-4,-5.1e-4 -5.2e-4,-5.1e-4 0,0 -5.2e-4,0 -5.2e-4,0 0,0 -5.1e-4,0 -5.1e-4,0 z m -28.05255,0.31522 c 0,0 -5.17e-4,5.2e-4 -5.17e-4,5.2e-4 0,0 -5.17e-4,0 -5.17e-4,0 0,0 -5.17e-4,5.2e-4 -5.17e-4,5.2e-4 0,0 -5.16e-4,0 -5.16e-4,0 -0.03102,0.0294 -0.05295,0.42684 -0.05374,1.10329 -8.25e-4,0.71626 0.02233,1.15119 0.05633,1.18287 0,0 5.17e-4,0 5.17e-4,0 0,0 5.17e-4,5.2e-4 5.17e-4,5.2e-4 0,0 5.17e-4,5.1e-4 5.17e-4,5.1e-4 0,0 5.16e-4,0 5.16e-4,0 0,0 5.17e-4,5.2e-4 5.17e-4,5.2e-4 0,0 5.17e-4,0 5.17e-4,0 1.94e-4,0 0.0014,3e-5 0.0015,0 0,0 5.17e-4,0 5.17e-4,0 0,0 5.17e-4,-5.2e-4 5.17e-4,-5.2e-4 0,0 5.17e-4,0 5.17e-4,0 0.01259,-0.008 0.02724,-0.0686 0.04186,-0.18603 0.05841,-0.4697 0.05935,-1.30313 0.0021,-1.85208 -0.01656,-0.15868 -0.03243,-0.23914 -0.04651,-0.24908 0,0 -5.17e-4,-5.2e-4 -5.17e-4,-5.2e-4 0,0 -5.17e-4,0 -5.17e-4,0 -1.88e-4,-6e-5 -0.0014,-4.9e-4 -0.0016,-5.2e-4 0,0 -5.17e-4,0 -5.17e-4,0 0,0 -5.17e-4,0 -5.17e-4,0 z"
         id="path8"
         style="fill:currentColor;fill-opacity:1" /><path
         d="m 154.91354,193.93958 c 11.42269,-11.42338 20.82806,-20.76979 20.90082,-20.76979 0.0728,0 -9.21355,9.34641 -20.63624,20.76979 -11.42268,11.42339 -20.82805,20.7698 -20.90081,20.7698 -0.0728,0 9.21354,-9.34641 20.63623,-20.7698 z m -44.99919,-33.40364 -0.64143,-0.72761 0.7276,0.64144 c 0.68006,0.59951 0.84894,0.81377 0.64144,0.81377 -0.0474,0 -0.37482,-0.32742 -0.72761,-0.7276 z m 58.09252,-45.37605 -3.70062,-3.77031 3.77031,3.70062 c 3.50245,3.43771 3.89014,3.84001 3.70062,3.84001 -0.0383,0 -1.73497,-1.69664 -3.77031,-3.77032 z M 72.098961,85.228229 c 0,-0.05494 0.20836,-0.263302 0.463021,-0.463021 0.419644,-0.329108 0.429002,-0.319749 0.0999,0.0999 -0.345644,0.440729 -0.562916,0.580887 -0.562916,0.363126 z m 61.776659,-4.199585 -3.70062,-3.770312 3.77031,3.700622 c 3.50245,3.437708 3.89014,3.840003 3.70063,3.840003 -0.0383,0 -1.73498,-1.696641 -3.77032,-3.770313 z"
         id="path2"
         style="fill:currentColor;fill-opacity:1" /><path
         d="m 103.50403,266.51186 c -5.458755,-15.7611 -9.441561,-30.90329 -11.335794,-43.09747 -0.876571,-5.64296 -0.878164,-14.82442 -0.0034,-19.68522 0.770801,-4.28319 1.924578,-9.40666 2.994028,-13.29532 l 0.818608,-2.97656 h 9.341878 c 8.66734,0 9.35198,0.0334 9.48179,0.46302 1.35283,4.47702 3.3715,13.60683 3.98011,18.00077 1.47205,10.62759 -0.9593,26.07973 -7.52021,47.79389 -1.89086,6.25804 -5.34686,16.71191 -5.80505,17.55939 -0.10438,0.19307 -0.95125,-1.87318 -1.95195,-4.7625 z m -48.340254,-72.57413 -20.765173,-20.76644 2.044963,-2.04496 2.044962,-2.04496 4.303655,4.24894 c 2.36701,2.33692 4.720373,4.49684 5.229696,4.79983 3.826915,2.27655 9.496672,2.20746 13.162528,-0.1604 0.691494,-0.44665 4.173383,-3.73342 7.737529,-7.30394 3.564147,-3.57051 6.551629,-6.49184 6.638849,-6.49184 0.08722,0 0.31016,0.50601 0.495422,1.12448 0.451882,1.50852 2.229989,5.01283 3.472503,6.84364 1.25664,1.85162 2.456216,2.8798 3.359878,2.8798 0.594908,0 -0.183569,0.88486 -5.411972,6.15156 -6.429103,6.47619 -7.089367,7.34914 -7.893401,10.43604 -0.748593,2.87404 -0.36868,5.97475 1.088382,8.88299 0.480068,0.95819 2.028384,2.73156 5.027484,5.75824 l 4.333773,4.37362 -2.051952,2.03992 -2.051953,2.03992 z m 77.066364,18.59801 -1.90905,-1.90905 4.31886,-4.3748 c 3.55666,-3.60273 4.46404,-4.68093 5.14149,-6.10941 1.70396,-3.59297 1.70371,-7.49208 -7.2e-4,-11.08288 -0.70732,-1.49012 -1.68225,-2.60161 -6.91728,-7.88616 -5.12936,-5.17789 -5.98709,-6.15156 -5.41904,-6.15156 0.37117,0 0.99327,-0.25046 1.38244,-0.55658 1.40291,-1.10354 4.19351,-5.73407 5.32509,-8.83613 0.26542,-0.72761 0.52446,-1.376 0.57564,-1.44087 0.0512,-0.0649 3.21498,2.9882 7.03066,6.7846 4.08864,4.06799 7.37548,7.12156 8.0039,7.43584 2.13506,1.06778 4.01278,1.44041 6.7121,1.33199 2.28181,-0.0917 2.76338,-0.20528 4.63292,-1.09312 1.85499,-0.88093 2.56691,-1.4658 6.41838,-5.27295 l 4.33197,-4.28212 1.98207,1.96885 1.98207,1.96884 -20.70602,20.70728 c -11.38831,11.38901 -20.76686,20.70728 -20.84123,20.70728 -0.0744,0 -0.99427,-0.85907 -2.04425,-1.90905 z M 89.419754,183.68698 c 0.399344,-4.33809 0.995697,-8.78117 1.325863,-9.87823 l 0.351555,-1.16812 h -0.835748 c -0.459662,0 -1.251681,0.12029 -1.760043,0.26732 -1.970217,0.56984 -4.074474,0.78247 -5.075661,0.51287 -0.783483,-0.21097 -1.239775,-0.61446 -2.163158,-1.91284 -2.546066,-3.58007 -4.421444,-8.05992 -4.794516,-11.453 -0.298712,-2.71679 0.510161,-5.82705 2.017282,-7.75681 0.73688,-0.94352 0.616099,-2.36975 -0.561507,-6.63048 -1.423328,-5.14977 -2.030136,-8.06253 -2.399029,-11.51566 -0.880657,-8.24366 1.569521,-15.74759 6.876745,-21.06078 5.302008,-5.30796 13.412751,-8.27437 22.638053,-8.2796 14.30232,-0.008 25.10491,6.71125 28.65331,17.82272 0.92942,2.91042 1.18927,4.75829 1.17196,8.33438 -0.02,4.14505 -0.62144,7.7891 -2.2888,13.86874 -1.69723,6.18857 -1.69985,6.22579 -0.5508,7.82215 1.22631,1.70369 1.78002,3.65912 1.76318,6.22662 -0.0182,2.77777 -0.59059,4.86486 -2.28458,8.33041 -1.89191,3.87044 -3.39116,5.88246 -4.63233,6.21668 -0.95302,0.25662 -3.10131,0.0322 -5.02916,-0.5254 -0.50836,-0.14703 -1.32477,-0.26732 -1.81424,-0.26732 -0.74398,0 -0.85861,0.0759 -0.69886,0.46302 0.50251,1.21759 0.6637,2.33256 1.60652,11.1125 l 0.14916,1.38906 h -1.08567 c -0.63257,0 -1.13231,-0.13803 -1.1974,-0.33073 -0.0614,-0.1819 -0.30429,-1.01534 -0.53964,-1.85208 -0.42544,-1.51257 -0.43376,-1.52136 -1.44062,-1.52136 h -1.0127 l -0.186,1.85209 -0.186,1.85208 h -1.95752 -1.95752 v -1.02526 c 0,-1.89387 -0.27092,-2.67891 -0.9245,-2.67891 -0.48059,0 -0.62503,0.18913 -0.75776,0.99219 -0.0902,0.5457 -0.16531,1.38508 -0.16691,1.86529 l -0.003,0.8731 -1.52135,-0.0794 -1.52135,-0.0794 -0.0777,-1.91823 -0.0777,-1.91823 h -1.31132 c -1.26642,0 -1.31133,0.0259 -1.31133,0.75682 0,0.41625 -0.0757,1.30922 -0.16825,1.98438 l -0.16826,1.22755 h -1.38463 -1.38462 l -0.164,-0.99219 c -0.0902,-0.5457 -0.16531,-1.37914 -0.16691,-1.85208 -0.002,-0.72977 -0.0987,-0.8599 -0.636064,-0.8599 -0.731569,0 -0.954349,0.43235 -0.954349,1.85209 0,1.74814 -0.118437,1.85208 -2.110355,1.85208 h -1.789157 l -0.163999,-0.99219 c -0.0902,-0.5457 -0.165309,-1.37914 -0.16691,-1.85208 -0.0028,-0.82746 -0.04315,-0.8599 -1.069549,-0.8599 -0.620456,0 -1.110925,0.13835 -1.172511,0.33073 -0.05823,0.1819 -0.295944,1.01534 -0.528254,1.85208 l -0.42238,1.52136 h -1.077795 -1.077796 z m 20.197086,-12.20582 c -0.14655,-2.72209 -1.10778,-4.99434 -2.75509,-6.51278 -0.63189,-0.58245 -1.27327,-1.05901 -1.42529,-1.05901 -0.15202,0 -0.7934,0.47656 -1.42529,1.05901 -1.65603,1.52647 -2.60843,3.78846 -2.75693,6.54777 -0.0646,1.20054 -0.0413,2.18281 0.0517,2.18281 0.0931,0 0.82504,-0.53418 1.62661,-1.18708 2.00313,-1.63156 2.4697,-1.70563 4.1108,-0.65254 0.73964,0.47463 1.52713,1.14122 1.74996,1.48131 0.68178,1.04052 0.94734,0.44087 0.82349,-1.85949 z m -16.232759,-6.91784 c 3.079256,-0.80204 7.819049,-3.93516 7.819049,-5.16857 0,-1.38367 -10.764604,-5.01291 -14.858231,-5.00939 -2.171151,0.002 -3.924273,1.7337 -3.926199,3.8785 -0.0015,1.65736 1.405212,4.16754 3.117776,5.5635 l 1.398974,1.14035 h 2.448042 c 1.346423,0 3.146688,-0.18198 4.000589,-0.40439 z m 31.006019,-0.34998 c 3.92499,-2.84324 4.72059,-7.41085 1.62013,-9.30123 -1.03295,-0.6298 -2.03961,-0.65639 -5.04007,-0.13315 -4.07426,0.71049 -11.32681,3.3657 -11.67555,4.2745 -0.23209,0.60482 0.23079,1.25614 1.75948,2.47572 2.9676,2.36755 5.88692,3.39098 9.75465,3.41968 2.3875,0.0177 2.60251,-0.0264 3.58136,-0.73552 z M 68.780376,117.0552 c -3.195247,-3.20412 -6.506063,-6.29457 -7.357369,-6.86767 -4.02002,-2.70628 -9.454139,-2.80006 -13.53342,-0.23357 -0.727604,0.45777 -3.140643,2.63195 -5.362308,4.83151 l -4.039391,3.99919 -1.979129,-1.97913 -1.979128,-1.97913 20.766035,-20.764772 20.766035,-20.764773 1.985505,1.972254 1.985505,1.972254 -4.065056,4.109526 c -4.284625,4.331497 -5.200671,5.532954 -6.008256,7.88024 -1.100366,3.198271 -0.908884,6.418107 0.569775,9.58096 0.690417,1.476801 1.56847,2.493111 6.007942,6.953911 l 5.199351,5.22433 -1.06933,1.12567 c -2.367355,2.49207 -4.090408,5.31527 -5.346126,8.75956 l -0.731096,2.00531 z m 66.420474,4.47952 c -1.03239,-3.19314 -3.02742,-6.64619 -5.30075,-9.17469 l -1.26039,-1.40185 5.03113,-5.07597 c 2.76712,-2.79178 5.33155,-5.61174 5.69874,-6.266586 2.11396,-3.77 2.21555,-7.934315 0.28986,-11.882479 -0.80953,-1.659746 -1.59886,-2.616456 -5.14385,-6.234626 l -4.18757,-4.274022 1.97702,-1.963821 1.97701,-1.963821 20.76604,20.764773 20.76603,20.764772 -1.96814,1.96814 -1.96813,1.96814 -4.32516,-4.21572 c -2.54511,-2.48071 -4.87356,-4.51158 -5.65769,-4.93461 -2.69475,-1.4538 -6.40928,-1.92459 -9.23042,-1.16987 -2.98489,0.79853 -3.95628,1.54521 -10.61997,8.16324 l -6.38663,6.34288 z M 96.130598,101.36673 c -0.09763,-2.232211 -0.18427,-2.581486 -0.860187,-3.467658 -1.27928,-1.677223 -1.56448,-1.723032 -10.727535,-1.723032 h -8.210582 v -4.101041 -4.101042 h 12.144733 12.144733 l 0.15487,-2.976563 c 0.23772,-4.568994 0.79624,-47.432357 0.6239,-47.881466 -0.0836,-0.217743 -0.52174,-0.469859 -0.97373,-0.560259 -1.428708,-0.285741 -3.717164,-1.561637 -4.647025,-2.590883 -1.645234,-1.821077 -1.479866,-3.927921 0.444787,-5.666729 3.485401,-3.14885 11.308858,-3.70581 16.109898,-1.14688 1.84424,0.98297 2.75095,1.951365 3.1857,3.40245 0.66089,2.205823 -1.53794,4.680775 -5.15151,5.798447 l -1.6249,0.502579 0.0554,3.929964 c 0.0305,2.16148 0.18832,13.514496 0.35078,25.228923 0.16246,11.714427 0.34215,21.447787 0.39931,21.629688 0.0812,0.258288 2.77158,0.330729 12.28307,0.330729 h 12.17914 v 4.101042 4.101041 l -8.00365,0.0058 c -9.04103,0.0066 -9.48991,0.08838 -10.94477,1.994782 -0.6836,0.895763 -0.77267,1.243078 -0.85551,3.336088 -0.0526,1.32936 -0.2072,2.33624 -0.35868,2.33624 -0.14642,0 -0.93825,-0.17389 -1.75962,-0.38642 -3.76112,-0.97318 -9.77275,-0.9839 -13.908341,-0.0248 -0.975204,0.22616 -1.81104,0.41121 -1.857412,0.41121 -0.04637,0 -0.133168,-1.11701 -0.192879,-2.48223 z"
         id="path1"
         style="fill:currentColor;fill-opacity:1" /></g></g></svg>
