<?xml version="1.0" encoding="UTF-8" standalone="no"?>
<!-- Created with Inkscape (http://www.inkscape.org/) -->

<svg
   width="185.18929mm"
   height="184.60013mm"
   viewBox="0 0 185.18929 184.60013"
   version="1.1"
   id="svg1"
   xml:space="preserve"
   inkscape:version="1.4.2 (f4327f4, 2025-05-13)"
   sodipodi:docname="ping.svg"
   xmlns:inkscape="http://www.inkscape.org/namespaces/inkscape"
   xmlns:sodipodi="http://sodipodi.sourceforge.net/DTD/sodipodi-0.dtd"
   xmlns="http://www.w3.org/2000/svg"
   xmlns:svg="http://www.w3.org/2000/svg"><sodipodi:namedview
     id="namedview1"
     pagecolor="#ffffff"
     bordercolor="#000000"
     borderopacity="0.25"
     inkscape:showpageshadow="2"
     inkscape:pageopacity="0.0"
     inkscape:pagecheckerboard="0"
     inkscape:deskcolor="#d1d1d1"
     inkscape:document-units="mm"
     inkscape:zoom="0.72604517"
     inkscape:cx="349.84049"
     inkscape:cy="349.15183"
     inkscape:window-width="1920"
     inkscape:window-height="1017"
     inkscape:window-x="-8"
     inkscape:window-y="-8"
     inkscape:window-maximized="1"
     inkscape:current-layer="layer1" /><defs
     id="defs1"><linearGradient
       id="swatch2"
       inkscape:swatch="solid"><stop
         style="stop-color:#000000;stop-opacity:1;"
         offset="0"
         id="stop2" /></linearGradient></defs><g
     inkscape:label="Layer 1"
     inkscape:groupmode="layer"
     id="layer1"
     transform="translate(-12.349707,-56.252243)"><path
       style="fill:#ffffff;fill-opacity:1"
       d="m 63.411805,238.65307 c -12.064207,-11.53583 -23.46523,-22.86348 -24.338492,-24.18186 -0.588812,-0.88895 -1.230105,-2.20874 -1.425095,-2.93288 -0.322821,-1.19887 -0.614794,-1.44259 -3.264817,-2.72527 -2.737309,-1.32494 -3.360889,-1.86649 -10.491252,-9.11121 -8.266095,-8.39867 -10.504017,-10.93751 -10.01256,-11.35892 3.507143,-3.00726 4.478818,-3.67924 4.885812,-3.37888 0.247786,0.18286 1.703031,1.34905 3.233879,2.59152 7.009248,5.68889 13.157276,6.65209 20.245859,3.1719 2.818193,-1.38362 3.484843,-1.95834 11.079968,-9.55213 4.553741,-4.55294 8.309905,-8.03483 8.604932,-7.9766 1.204409,0.23773 2.519748,2.58415 3.419808,6.10057 1.657094,6.47406 3.720327,9.48331 7.774664,11.33945 1.022934,0.46831 2.907299,0.94929 4.187476,1.06883 2.322448,0.21687 2.327592,0.21978 2.325739,1.31287 -0.0026,1.54079 -0.513821,2.2047 -6.997265,9.08732 -9.134595,9.697 -10.352482,11.70313 -10.354053,17.05542 -0.0015,5.0811 2.031523,9.60635 6.489132,14.44401 l 2.39763,2.60205 -2.597648,2.32489 c -1.428706,1.27868 -2.659075,2.32188 -2.734154,2.31821 -0.07508,-0.004 -1.168382,-0.99335 -2.429563,-2.19929 z m 81.127725,0.0674 c -0.55761,-1.093 -0.67777,-1.78833 -0.50647,-2.93063 0.16645,-1.11001 0.0879,-1.6111 -0.30361,-1.936 -0.45635,-0.37873 -0.22173,-0.92171 1.72493,-3.99196 2.57986,-4.06894 3.538,-6.37784 3.87074,-9.32763 0.32579,-2.88809 -0.29287,-5.82279 -1.92512,-9.13218 -1.25758,-2.54975 -2.02681,-3.45229 -7.96776,-9.34861 -6.08396,-6.03825 -7.43478,-7.67301 -8.08922,-9.78958 -0.23379,-0.75611 -0.1542,-0.79375 1.67811,-0.79375 3.11835,0 5.44841,-0.93964 7.47262,-3.01347 2.25684,-2.31216 3.86487,-5.39837 6.18912,-11.87842 l 1.86172,-5.1905 6.99843,6.778 c 8.88332,8.60353 10.80832,10.2268 14.00719,11.81169 2.30564,1.14233 2.96837,1.30344 5.88682,1.43108 5.45023,0.23837 9.16373,-1.34782 15.25943,-6.51794 1.22372,-1.03791 2.35163,-1.88711 2.50647,-1.88711 0.15484,0 1.09831,0.86363 2.09659,1.91916 2.81115,2.97238 2.8307,2.92448 -3.91758,9.60264 -3.15295,3.12019 -6.09132,5.85874 -6.52972,6.08567 -0.70706,0.366 -0.83548,0.3116 -1.13709,-0.48168 l -0.34,-0.89428 -2.65527,1.61206 c -1.4604,0.88663 -2.65336,1.71923 -2.65103,1.85022 0.002,0.13098 0.40485,0.93896 0.89446,1.7955 1.05271,1.84162 0.82752,2.23166 -1.31937,2.28527 -1.17034,0.0292 -1.48566,0.15957 -1.3719,0.56711 0.41703,1.49395 -0.015,2.29176 -2.83266,5.23111 -9.72505,10.14499 -27.19915,27.57722 -27.64345,27.57722 -0.28893,0 -0.8543,-0.64484 -1.25638,-1.43299 z m -50.78739,-6.5927 c 0.05454,-8.15155 0.08304,-7.7414 -0.555019,-7.98625 -0.304465,-0.11683 -2.098904,-0.52734 -3.987642,-0.91224 -6.577559,-1.34042 -17.005646,-5.30835 -20.584079,-7.83232 l -0.960017,-0.67713 3.200144,-3.86374 c 1.76008,-2.12505 3.426466,-3.86374 3.703082,-3.86374 0.276615,0 2.046682,0.7326 3.933483,1.628 8.324824,3.95063 16.818238,5.77455 26.890268,5.77455 10.08812,0 19.15223,-2.04696 28.19783,-6.36795 l 3.72747,-1.78057 0.7061,0.86753 c 0.38836,0.47715 1.93519,2.29719 3.43741,4.04455 l 2.73131,3.17701 -5.02436,2.48814 c -5.20065,2.57543 -12.0276,5.01425 -17.98895,6.42625 l -3.43959,0.8147 v 7.16251 7.1625 H 105.72491 93.710245 Z M 83.631878,199.67222 c 0.197694,-3.44798 0.948589,-7.1547 2.549146,-12.5836 0.281445,-0.95463 0.465605,-1.7818 0.409244,-1.83817 -0.05636,-0.0564 -1.603635,0.38307 -3.438386,0.97651 -3.802961,1.23004 -5.95265,1.22617 -8.385735,-0.0151 -2.563639,-1.30788 -3.891257,-3.61243 -4.980567,-8.64555 -0.544985,-2.51809 -1.117541,-4.08128 -2.045545,-5.58477 -0.999165,-1.61878 -1.322451,-2.55418 -1.438836,-4.16319 -0.199667,-2.76036 -0.01572,-3.34533 1.948628,-6.19688 1.642246,-2.38397 1.673844,-2.48116 1.650316,-5.07634 -0.01319,-1.45521 -0.147948,-4.47146 -0.299456,-6.70278 -0.249284,-3.67131 -0.361593,-4.14916 -1.18151,-5.02708 -1.014481,-1.08625 -0.634524,-1.25374 1.307994,-0.57657 0.620941,0.21646 1.189556,0.33299 1.263589,0.25896 0.07403,-0.074 -0.142057,-1.40208 -0.480199,-2.95121 l -0.614803,-2.8166 -2.025288,-0.10633 c -2.314727,-0.12154 -2.668238,-0.53255 -1.838356,-2.13736 0.30508,-0.58996 0.554691,-1.31867 0.554691,-1.61934 0,-0.65163 -0.931658,-0.73675 -1.157027,-0.10572 -0.437926,1.2262 -0.776636,-0.60016 -0.886923,-4.78236 -0.108129,-4.10035 -0.01457,-5.07441 0.785942,-8.18222 2.206279,-8.56544 7.508122,-15.75143 15.36912,-20.83094 7.798425,-5.039075 15.426566,-7.338937 24.341663,-7.338937 8.92277,0 17.78662,2.590627 25.30963,7.397217 2.49829,1.5962 7.24769,6.18286 9.08969,8.77821 2.89815,4.08348 5.32781,9.78643 6.15214,14.44049 0.5588,3.15487 0.46106,8.58511 -0.19452,10.80729 -0.70507,2.38994 -2.74967,4.44592 -5.41378,5.44389 -2.31698,0.86794 -2.80085,1.51566 -2.15371,2.88302 l 0.4721,0.99754 0.31265,-1.14653 c 0.17195,-0.63059 0.46418,-1.14653 0.64939,-1.14653 0.18521,0 0.73393,0.7838 1.21938,1.74179 0.86217,1.70141 0.8664,1.74693 0.18233,1.96405 -0.89425,0.28382 -0.89225,0.75272 0.005,1.23305 1.06942,0.57234 0.84626,1.05833 -0.48597,1.05833 -1.42492,0 -1.93001,0.52204 -2.06163,2.1308 -0.0966,1.18094 -0.0769,1.19907 1.19283,1.0982 l 1.29105,-0.10257 0.12006,3.85038 c 0.11211,3.59591 0.18467,3.92974 1.09786,5.05137 2.64684,3.25095 2.90274,3.82487 2.90274,6.51008 0,2.337 -0.13072,2.78854 -1.64766,5.69114 -0.90622,1.73401 -2.05027,4.54147 -2.54235,6.23881 -1.16355,4.0135 -2.1649,5.7688 -4.04292,7.08696 -1.38224,0.97019 -1.77439,1.06969 -4.05694,1.02942 -1.73268,-0.0306 -3.34932,-0.33522 -5.14399,-0.96938 -1.43946,-0.50864 -2.66058,-0.88141 -2.7136,-0.82839 -0.053,0.053 0.28728,1.44175 0.75625,3.08605 1.86802,6.54976 3.14885,14.45429 2.41398,14.89765 -0.16988,0.10249 -1.49522,0.24324 -2.9452,0.31278 l -2.63632,0.12643 -0.27785,-1.76389 c -0.45737,-2.90361 -0.61223,-3.35139 -1.15901,-3.35139 -0.41088,0 -0.52244,0.51928 -0.52244,2.4317 0,2.862 0.003,2.85996 -3.69528,2.85996 -2.88987,0 -3.00417,-0.0981 -3.01232,-2.58649 -0.0126,-3.85839 -1.14903,-4.02646 -1.40629,-0.20798 l -0.17639,2.61809 -2.52251,0.10294 -2.5225,0.10294 -0.23704,-1.86683 c -0.30096,-2.3702 -0.51018,-3.10155 -0.8873,-3.10155 -0.30328,0 -0.48317,0.68877 -0.89833,3.43958 l -0.22628,1.4993 h -2.59999 -2.599983 l -0.103033,-2.73402 c -0.081,-2.14927 -0.216213,-2.73403 -0.632201,-2.73403 -0.407654,0 -0.569671,0.60756 -0.705555,2.64583 l -0.176389,2.64584 -3.263195,0.10143 -3.263194,0.10143 v -2.48268 c 0,-1.36548 -0.139312,-2.48268 -0.309582,-2.48268 -0.660575,0 -1.155883,1.09103 -1.350247,2.97424 l -0.202769,1.96464 H 86.416545 83.414438 Z M 103.59738,184.4047 c 0.73313,-0.77068 1.60112,-1.40123 1.92888,-1.40123 0.32776,0 1.73147,1.11325 3.11935,2.47389 1.6015,1.57006 2.64641,2.3509 2.86004,2.13727 0.84273,-0.84273 -1.2831,-8.1673 -3.25198,-11.20473 -1.84526,-2.84673 -2.23646,-3.12596 -3.35382,-2.39384 -1.2045,0.78922 -3.16069,3.82776 -3.85555,5.9888 -0.58625,1.82329 -1.289044,5.72387 -1.293719,7.1803 -0.0026,0.82026 0.01254,0.81694 1.255589,-0.27447 0.69205,-0.60762 1.85809,-1.73532 2.59121,-2.50599 z m -15.470101,-9.55442 c 3.362614,-0.84119 7.000323,-2.41513 9.964951,-4.31158 1.702137,-1.08884 2.00846,-1.44429 2.00846,-2.33056 0,-1.5652 -2.101012,-2.80717 -8.665227,-5.12228 -3.092248,-1.09059 -6.220794,-2.21465 -6.952324,-2.49792 -2.665302,-1.03206 -5.781931,-0.29527 -7.705972,1.82174 -1.639277,1.80369 -1.76821,2.84214 -0.785927,6.33001 1.065893,3.78475 1.542828,4.74138 2.957184,5.93148 0.963099,0.8104 1.411706,0.92397 3.649672,0.92397 1.421151,0 3.870775,-0.33 5.529183,-0.74486 z m 42.589161,0.36569 c 1.39015,-0.48461 2.01344,-1.46032 3.29433,-5.15704 1.95504,-5.64237 1.70361,-7.35346 -1.36666,-9.30057 -2.60777,-1.6538 -3.91484,-1.4821 -11.09851,1.45788 -10.27507,4.20517 -11.87432,5.16163 -11.01532,6.58793 0.55971,0.92936 8.45114,4.77482 11.26625,5.48999 2.03525,0.51706 4.20336,0.88295 7.44388,1.25625 0.21358,0.0246 0.8778,-0.1259 1.47603,-0.33444 z m -92.099291,10.51931 c -2.79059,-4.80085 -5.445822,-11.61005 -7.097686,-18.20163 -0.697823,-2.78458 -1.268769,-5.42666 -1.268769,-5.87129 0,-0.44462 -0.209476,-0.88878 -0.465502,-0.98703 -0.256026,-0.0983 -2.994464,-0.18146 -6.085417,-0.18491 l -5.619914,-0.006 v -1.17574 c 0,-1.07033 0.110708,-1.19373 1.234722,-1.37629 l 1.234722,-0.20054 -1.234722,-0.35091 -1.234722,-0.35091 -0.09385,-9.80721 c -0.08863,-9.26172 -0.05919,-9.79197 0.529167,-9.53319 0.342656,0.15072 0.940511,0.24744 1.328567,0.21495 0.388055,-0.0325 2.717002,-0.17753 5.175437,-0.32231 2.458435,-0.14478 4.569749,-0.36371 4.691808,-0.48652 0.122059,-0.12281 0.780253,-2.42468 1.462652,-5.11528 0.6824,-2.69059 1.630615,-6.05696 2.107145,-7.48082 0.894739,-2.67346 5.258858,-12.7204 5.730089,-13.19163 0.311706,-0.3117 7.945382,6.22951 8.105078,6.94515 0.05958,0.26698 -0.385886,1.46444 -0.989916,2.66101 -2.131824,4.22312 -3.784147,8.31043 -4.029091,9.96667 -0.239327,1.61825 -0.288544,1.67569 -1.435731,1.67569 -1.233976,0 -2.296638,0.74428 -2.296638,1.60854 0,0.2749 0.277813,0.47653 0.617361,0.44807 1.624053,-0.1361 1.85211,0.0343 1.850741,1.38297 -7.39e-4,0.72761 -0.236092,2.75167 -0.523008,4.49792 -0.286915,1.74625 -0.524436,3.95409 -0.527824,4.9063 -0.0053,1.48621 -0.213964,2.00066 -1.474032,3.63394 -0.80733,1.04645 -1.75983,2.05889 -2.116666,2.24986 -0.356837,0.19097 -0.648794,0.60054 -0.648794,0.91014 0,0.45187 0.26096,0.52232 1.322917,0.35715 l 1.322916,-0.20576 -0.830715,0.68705 -0.830715,0.68706 1.801425,1.97105 c 0.990784,1.08407 1.877348,2.31516 1.970142,2.73574 0.09279,0.42058 0.582854,2.65721 1.089021,4.97029 1.074266,4.90916 2.421632,8.88625 4.388169,12.9528 0.774679,1.60194 1.408507,3.21977 1.408507,3.59518 0,0.75292 -1.024588,1.79008 -5.02353,5.08518 l -2.673138,2.20264 z m 128.864101,-3.09507 c -1.84326,-1.54363 -3.39876,-3.09961 -3.45665,-3.45773 -0.0579,-0.35812 0.46781,-1.90709 1.16823,-3.44215 4.95367,-10.85665 6.86179,-24.65522 5.06916,-36.65769 -0.90218,-6.04046 -3.63322,-14.42577 -6.42035,-19.71287 l -1.09332,-2.07398 3.51299,-3.29174 c 1.93215,-1.81046 3.63206,-3.29811 3.77758,-3.30588 0.14552,-0.008 0.26458,0.6407 0.26458,1.44107 0,1.41386 0.0288,1.44946 1.01177,1.25285 0.98733,-0.19746 1.05615,-0.10887 2.85017,3.66914 2.44894,5.1572 3.74224,8.74453 5.14112,14.2603 l 1.1631,4.58611 5.39703,0.27195 c 3.82691,0.19284 5.63233,0.42613 6.20581,0.80189 l 0.80878,0.52993 v 10.91944 10.91945 l -5.90903,0.0967 -5.90903,0.0967 -1.43231,5.64445 c -0.78777,3.10444 -1.71694,6.51757 -2.06483,7.58472 -0.72246,2.21617 -4.73587,11.59391 -5.24652,12.25903 -0.63884,0.83207 -1.49274,0.40996 -4.83828,-2.39174 z m 6.61458,-59.25136 c 1.06155,-0.004 1.14653,-0.0913 1.14653,-1.17212 0,-1.79483 -0.673,-2.42702 -2.80141,-2.63154 -1.79602,-0.17257 -1.84775,-0.15315 -1.47033,0.55207 0.21515,0.40202 0.39119,1.39489 0.39119,2.20639 0,1.35794 0.0632,1.45851 0.79375,1.26273 0.43656,-0.11699 1.30968,-0.21488 1.94027,-0.21753 z M 57.583553,121.31735 C 51.139632,115.19258 45.372942,110.076 43.152545,108.51322 c -6.973358,-4.90806 -13.85055,-3.95874 -22.208252,3.0656 -1.723034,1.44814 -3.297502,2.63299 -3.498818,2.63299 -0.201315,0 -1.43022,-1.14064 -2.730898,-2.53475 l -2.36487,-2.53474 7.980355,-7.77235 c 4.389195,-4.274795 10.44098,-10.182844 13.44841,-13.128999 4.648284,-4.553578 5.558074,-5.297635 6.068496,-4.963022 0.330243,0.216494 0.661122,0.319865 0.735287,0.229714 0.07416,-0.09015 1.610376,-2.346724 3.413802,-5.014606 1.803426,-2.667882 3.365047,-4.850694 3.470269,-4.850694 0.105222,0 0.489672,0.270011 0.854333,0.600025 0.619692,0.560814 0.725253,0.561667 1.615278,0.01305 0.523742,-0.322836 0.917565,-0.791285 0.875163,-1.040998 -0.0424,-0.249713 -0.177794,-0.8792 -0.300872,-1.39886 -0.203689,-0.860017 0.415303,-1.585075 6.895253,-8.076752 l 7.119032,-7.131917 2.265868,2.245728 c 1.246228,1.235151 2.265869,2.40951 2.265869,2.609688 0,0.200178 -1.327568,2.223578 -2.950152,4.496445 -4.253937,5.95879 -4.63457,6.937518 -4.63457,11.916922 0,3.521319 0.112671,4.313113 0.853398,5.997222 1.296273,2.947195 3.416004,5.726102 8.143251,10.675572 l 4.29983,4.501961 -1.861022,1.671651 c -5.941335,5.33676 -10.491861,12.90954 -12.259902,20.40237 l -0.59839,2.53593 z m 93.231667,1.50823 c -0.11246,-0.18197 -1.01603,-2.36505 -2.00793,-4.8513 -3.36529,-8.43527 -5.09817,-11.21212 -10.0483,-16.10191 -1.8349,-1.81252 -3.02774,-3.27434 -3.02774,-3.710466 0,-0.446007 1.41931,-2.125735 3.73263,-4.417511 4.45634,-4.414841 6.67871,-7.392505 7.77831,-10.421852 2.44657,-6.740226 0.71594,-13.258322 -5.235,-19.71664 l -2.41117,-2.616743 2.03636,-2.16839 c 1.12001,-1.192614 2.3279,-2.327319 2.68421,-2.521565 0.55381,-0.301915 1.70587,0.71783 7.9375,7.025865 6.67896,6.760854 27.24401,26.966636 32.58233,32.013128 1.23148,1.164167 2.51357,2.696459 2.84908,3.405093 0.35443,0.748613 1.12305,1.561531 1.83454,1.940281 0.67349,0.35852 2.75327,2.15706 4.62174,3.99676 l 3.39721,3.34492 -2.59346,2.37562 c -1.42639,1.30658 -2.69981,2.38106 -2.82981,2.38772 -0.13,0.007 -1.19435,-0.94588 -2.36523,-2.11676 -1.38889,-1.38889 -2.53296,-2.97609 -3.29141,-4.56626 -1.17923,-2.47235 -1.56639,-2.81409 -2.32672,-2.05376 -0.54503,0.54503 -0.53842,1.30997 0.0176,2.04156 0.24253,0.31909 -0.0353,0.0782 -0.61736,-0.53531 -1.02294,-1.07818 -1.18351,-1.12298 -4.80112,-1.33975 -4.43467,-0.26573 -6.56384,0.17713 -10.3358,2.1498 -2.70093,1.41254 -5.88125,4.37503 -13.3163,12.40421 -2.23284,2.41126 -4.15173,4.23523 -4.2642,4.05326 z m 3.87784,-48.4769 c 1.68974,-0.613752 2.20486,-0.963585 2.20486,-1.497386 0,-0.834305 -0.62701,-0.731223 -3.62981,0.596757 -1.50121,0.663909 -1.94539,1.022621 -1.78472,1.441319 0.11765,0.306587 0.39186,0.490546 0.60936,0.408798 0.21749,-0.08175 1.38763,-0.509017 2.60031,-0.949488 z M 70.760338,87.566743 c -1.810374,-2.034933 -3.337145,-3.835188 -3.392827,-4.000567 -0.117761,-0.349764 6.648544,-3.743762 10.512973,-5.273336 3.462863,-1.370631 7.94686,-2.708334 11.446516,-3.414819 1.544537,-0.3118 3.012974,-0.736816 3.263194,-0.944479 0.346039,-0.287187 0.454945,-2.225106 0.454945,-8.095486 V 58.12014 h 11.848141 11.84814 l -0.1112,7.402818 c -0.0966,6.433719 -0.0368,7.477204 0.45703,7.971044 0.31253,0.312524 3.32559,1.335204 6.6957,2.272622 9.34789,2.600177 15.16694,4.779167 17.4854,6.547538 l 1.16362,0.887535 -3.23771,3.686999 c -1.78074,2.02785 -3.42479,3.687 -3.65345,3.687 -0.22866,0 -1.58905,-0.539373 -3.02307,-1.198606 -13.29617,-6.112354 -29.06556,-7.469665 -43.510894,-3.745092 -3.821575,0.985352 -10.788527,3.52473 -13.660397,4.979066 l -1.294524,0.655557 z"
       id="path2" /></g></svg>
